<svg xmlns="http://www.w3.org/2000/svg" viewBox="0 0 442 328" fill="none" class="mx-auto"><path fill="#79C9EA" d="M425.992 94.267h-18.135v181.568h18.135z"></path><path fill="#62B6CE" d="M425.987 94.267h-5.623v181.568h5.623z"></path><path fill="#79C9EA" d="M39.087 94.267H20.952v181.568h18.135z"></path><path fill="#62B6CE" d="M39.085 94.267h-5.623v181.568h5.623z"></path><path fill="#FEBF4B" d="M441.321 158.77H.401v67.817h440.92z"></path><path fill="#0683C5" d="M77.772 158.77h-37.37L.4 224.691v1.896H36.62zM88.975 226.587h37.37l41.153-67.817h-37.366zM178.704 226.587h37.366l41.157-67.817h-37.37zM268.431 226.587h37.37l41.153-67.817h-37.371zM358.158 226.587h37.37l41.153-67.817h-37.366z"></path><path fill="#DD7814" d="M441.321 158.77H.401v10.361h440.92zM441.321 223.467H.401v3.119h440.92z" opacity="0.31"></path><path fill="#FEBF4B" d="M441.321 61.376H.401v67.817h440.92z"></path><path fill="#0683C5" d="M77.772 61.376h-37.37L.4 127.293v1.9H36.62zM88.975 129.193h37.37l41.153-67.817h-37.366zM178.704 129.193h37.366l41.157-67.817h-37.37zM268.431 129.193h37.37l41.153-67.817h-37.371zM358.158 129.193h37.37l41.153-67.817h-37.366z"></path><path fill="#DD7814" d="M441.321 61.376H.401v10.362h440.92zM441.321 126.073H.401v3.12h440.92z" opacity="0.31"></path><path fill="#01305A" d="M365.732 57.027H75.988c-7.008 0-12.69 5.682-12.69 12.69v170.014c0 7.008 5.682 12.69 12.69 12.69h289.744c7.009 0 12.691-5.682 12.691-12.69V69.718c0-7.009-5.682-12.69-12.691-12.69"></path><path fill="#fff" d="M364.421 78.364v152.728a8.13 8.13 0 0 1-2.383 5.752 8.13 8.13 0 0 1-5.752 2.383H85.434a8.143 8.143 0 0 1-8.14-8.135V78.364a8.14 8.14 0 0 1 8.14-8.138h270.852a8.13 8.13 0 0 1 8.135 8.138"></path><path fill="#FF7C78" d="M175.85 158.609h-11.101v14.323h-27.327v-14.323h-43.32v-17.901l35.445-51.331h28.878l-31.505 47.396h11.339v-12.75h26.49v12.75h11.101zM179.785 131.165c0-27.685 15.751-43.678 37.825-43.678s37.825 15.993 37.825 43.678-15.75 43.677-37.825 43.677c-22.074 0-37.825-15.989-37.825-43.677m47.375 0c0-16.112-4.055-21.123-9.546-21.123s-9.545 5.011-9.545 21.123c0 16.111 4.054 21.122 9.545 21.122s9.546-5.011 9.546-21.122M343.273 158.609h-11.101v14.323h-27.327v-14.323h-43.321v-17.901l35.445-51.331h28.9l-31.526 47.396h11.339v-12.75h26.49v12.75h11.101z"></path><path fill="#01305A" d="M407.857 245.629v1.084a24.727 24.727 0 0 1-24.731 24.73H58.592a24.7 24.7 0 0 1-17.489-7.242 24.72 24.72 0 0 1-7.242-17.488v-1.084z"></path><path fill="#01305A" d="M178.944 245.629v.246c0 1.96 1.309 3.545 2.929 3.545h76.351c1.615 0 2.928-1.585 2.928-3.545v-.246z" style="mix-blend-mode:screen"></path><path fill="#01305A" d="M364.421 78.364v9.01H77.295v-9.01a8.15 8.15 0 0 1 8.139-8.138h270.852a8.14 8.14 0 0 1 8.135 8.138" opacity="0.2"></path><path fill="#fff" d="M295.058 76.96H142.78a.71.71 0 0 0-.71.71v3.137c0 .392.318.71.71.71h152.278a.71.71 0 0 0 .709-.71v-3.136a.71.71 0 0 0-.709-.71"></path><path fill="#01305A" d="M105.375 79.238v1.7a.63.63 0 0 1-.943.543l-1.462-.85-1.466-.85a.626.626 0 0 1-.23-.857.6.6 0 0 1 .23-.23l1.466-.85 1.462-.85a.63.63 0 0 1 .943.548zM112.979 79.238v1.7a.63.63 0 0 0 .943.543l1.462-.85 1.462-.85a.62.62 0 0 0 .318-.544.62.62 0 0 0-.318-.544l-1.462-.85-1.462-.85a.63.63 0 0 0-.943.549z"></path><path fill="#01305A" d="M362.956 73.706H78.766a8.11 8.11 0 0 1 6.669-3.48h270.852a8.11 8.11 0 0 1 6.669 3.48" opacity="0.2"></path><path fill="#01305A" d="M305.644 226.184H132.197a6.14 6.14 0 0 1-6.141-6.142 6.14 6.14 0 0 1 6.141-6.137h173.447a6.14 6.14 0 0 1 4.342 1.799 6.13 6.13 0 0 1 1.799 4.343 6.14 6.14 0 0 1-6.141 6.137" opacity="0.1"></path><path fill="#855137" d="M329.29 196.904a77 77 0 0 1-3.888 6.668c-9.308 14.093-16.235 11.071-19.975 6.724a19.6 19.6 0 0 1-2.95-4.675 20.5 20.5 0 0 1-1.602-5.5l1.73.404c2.048.939 5.444 2.235 7.964 1.844q.467-.076.914-.238c2.261-.85 5.334-5.295 7.412-8.674a80 80 0 0 0 2.299-3.974z"></path><path fill="#6D280A" d="M329.292 196.903a77 77 0 0 1-3.889 6.668c-2.644-2.902-5.036-7.174-6.515-10.093a81 81 0 0 0 2.299-3.974zM312.571 202.854s-1.879 5.754-10.077 2.784a20.5 20.5 0 0 1-1.619-5.517l1.73.404c2.048.939 5.444 2.235 7.964 1.844z"></path><path fill="#855137" d="M388.966 221.183c-1.878 12.146-10.693 3.23-11.475-6.261a69 69 0 0 1-.187-6.409c.026-1.959.119-3.846.238-5.559.026-.331.047-.654.073-.973.327-4.127.79-7.025.79-7.025l5.772-7.943s.671 2.227 1.529 5.652c.791 3.166 1.743 7.357 2.466 11.764.216 1.33.425 2.678.578 4.025.578 4.556.782 9.086.216 12.729"></path><path fill="#6D280A" d="M385.717 192.062c-1.7 3.145-4.527 7.314-8.16 9.184.025-.298.046-.587.072-.85.327-3.689.79-6.273.79-6.273l5.755-7.11s.684 1.989 1.543 5.049M388.762 208.303c-2.086 1.275-8.925.672-11.441.051.03-2.086.158-4.084.311-5.831l10.552 2.185a77 77 0 0 1 .578 3.595"></path><path fill="#3B73AB" d="M328.108 169.895s-8.347 14.734-9.719 19.724c0 0 5.703 9.528 10.875 10.582l1.917-6.498s.204-20.332-3.073-23.808"></path><path fill="#3B73AB" d="m346.435 162.325-18.326 7.569 8.109 62.815s25.228 3.54 38.276 0v-62.815l-17.82-7.964z"></path><path fill="#00528A" d="M342.696 196.558a29.6 29.6 0 0 0 13.43 7.952.38.38 0 0 0 .325-.05.4.4 0 0 0 .117-.122.39.39 0 0 0-.23-.584 28.85 28.85 0 0 1-13.06-7.752.39.39 0 0 0-.667.212.39.39 0 0 0 .085.344M342.851 190.578q0 .097.046.183c.204.353.425.718.702 1.097 1.449 2.065 4.194 4.806 9.022 6.111a.4.4 0 0 0 .094 0 .357.357 0 0 0 .356-.314.358.358 0 0 0-.263-.396c-5.197-1.402-7.922-4.543-9.282-6.893a.362.362 0 0 0-.425-.171.36.36 0 0 0-.193.147.36.36 0 0 0-.057.236M343.507 174.244a.354.354 0 0 0 .273.328q.076.018.152.004a25.6 25.6 0 0 0 10.098-4.446 24.6 24.6 0 0 0 4.896-4.615.37.37 0 0 0 .019-.402.4.4 0 0 0-.096-.104.34.34 0 0 0-.266-.066.36.36 0 0 0-.235.142c-.06.077-5.334 7.004-14.552 8.802a.355.355 0 0 0-.289.357"></path><path fill="#FF7C78" d="M345.828 226.41s-11.475-28.548-18.641-27.421c-11.05 1.742-18.462 35.721-17.557 67.417l7.591.425s8.5-29.856 10.021-37.68c0 0 5.857 20.319 19.045 17.493 9.762-2.091 3.4-12.083-.459-20.234"></path><path fill="#D84E5A" d="m316.325 265.533-.935-.17c0-.111 2.04-11.224 4.488-22.453 4.993-22.903 6.868-23.974 7.484-24.327a1.293 1.293 0 0 1 1.203-.102c1.275.544 1.878 3.217 2.83 7.263 1.534 6.541 3.638 15.496 9.448 19.244l-.519.791c-6.128-3.957-8.283-13.128-9.855-19.826-.753-3.218-1.467-6.256-2.283-6.609-.046-.021-.144-.064-.352.055-2.572 1.479-8.292 28.399-11.509 46.134"></path><path fill="#855137" d="m316.893 264.75-.603 3.099-.774 3.982-.165.85a7.888 7.888 0 0 1-6.401-.553l.183-1.062.629-3.659.544-3.192z"></path><path fill="#00528A" d="M310.748 272.573s-1.491-1.955-2.656-1.858c-1.164.098-10.089 7.361-13.166 7.986s-2.457 2.89-1.875 4.042c.583 1.152 24.604-.718 24.604-.718s.578-7.162-.234-9.35c-.812-2.189-4.254.391-6.673-.102"></path><path fill="#fff" d="M305.831 277.628a.43.43 0 0 0 .471-.142.42.42 0 0 0 .022-.492c-.043-.068-1.003-1.7-2.278-2.32a2.98 2.98 0 0 0-3.056.178.42.42 0 0 0-.162.284.42.42 0 0 0 .211.425.43.43 0 0 0 .474-.033 2.13 2.13 0 0 1 2.15-.089c1.042.51 1.904 1.963 1.913 1.98a.42.42 0 0 0 .255.209"></path><path fill="#fff" d="M307.1 276.377a.432.432 0 0 0 .493-.633c-.038-.068-.999-1.7-2.274-2.316a2.966 2.966 0 0 0-3.055.174.4.4 0 0 0-.112.126.433.433 0 0 0 .483.636.4.4 0 0 0 .151-.074 2.13 2.13 0 0 1 2.151-.089c1.045.51 1.904 1.964 1.912 1.981a.43.43 0 0 0 .251.195M304.099 278.635a.43.43 0 0 0 .467-.145.428.428 0 0 0 .021-.489c-.038-.068-.998-1.7-2.273-2.32a2.97 2.97 0 0 0-3.056.178.44.44 0 0 0-.167.286.433.433 0 0 0 .69.403 2.12 2.12 0 0 1 2.15-.089c1.046.51 1.904 1.963 1.913 1.98a.43.43 0 0 0 .255.196"></path><path fill="#FF7C78" d="M342.886 246.795s13.366 2.55 31.089-.625c-1.462-7.323-4.773-13.073-10.175-18.182l-23.902 1.73c-1.504 5.64-.412 11.335 2.988 17.077"></path><path fill="#00528A" d="M339.075 270.429s-3.166-.693-4.029-.638-6.375 6.8-8.304 7.263c-3.511.85-3.269 6.375-1.101 6.554 6.264.514 16.8-2.593 16.8-2.593s.667-7.131.14-9.35-1.755-.671-3.506-1.236"></path><path fill="#855137" d="m340.936 270.896 2.329-9.086h-6.69l-1.509 8.767s2.172 1.509 5.87.319"></path><path fill="#fff" d="M334.187 276.698a.425.425 0 0 0 .447-.2.43.43 0 0 0 .048-.328.4.4 0 0 0-.074-.152c-.047-.063-1.173-1.576-2.507-2.061a3 3 0 0 0-1.578-.167 3 3 0 0 0-1.44.669.42.42 0 0 0-.13.306.43.43 0 0 0 .13.306.44.44 0 0 0 .306.13.43.43 0 0 0 .306-.13 2.12 2.12 0 0 1 2.125-.319c1.084.395 2.1 1.747 2.125 1.764a.43.43 0 0 0 .242.182"></path><path fill="#fff" d="M335.322 275.338a.43.43 0 0 0 .453-.19.42.42 0 0 0-.028-.49c-.047-.064-1.173-1.577-2.508-2.061a2.97 2.97 0 0 0-3.017.501.42.42 0 0 0-.096.472.4.4 0 0 0 .096.14.42.42 0 0 0 .472.096.4.4 0 0 0 .14-.096 2.13 2.13 0 0 1 2.125-.319c1.088.396 2.095 1.747 2.125 1.764a.42.42 0 0 0 .238.183M332.572 277.884a.427.427 0 0 0 .518-.439.43.43 0 0 0-.093-.241c-.046-.064-1.173-1.577-2.507-2.061a2.974 2.974 0 0 0-3.018.501.43.43 0 0 0 .591.625 2.13 2.13 0 0 1 2.125-.315c1.092.396 2.1 1.747 2.125 1.764a.43.43 0 0 0 .259.166"></path><path fill="#FF7C78" d="M372.343 246.648a11.2 11.2 0 0 1-4.73.034q-.71-.15-1.394-.395c-8.896-3.158-12.92-17.132-12.92-17.132-1.526 7.824-10.349 37.664-10.349 37.664l-1.373-.183-.948-.123-5.202-.685c-1.011-30.676 6.754-65.101 17.812-66.839 7.144-1.127 18.641 27.421 18.641 27.421 3.859 8.151 10.221 18.143.463 20.238"></path><path fill="#D84E5A" d="M367.6 246.684q-.71-.15-1.394-.395c-3.255-5.244-4.951-12.576-6.32-18.479-1.088-4.696-2.125-9.129-3.463-9.89a.75.75 0 0 0-.642-.055c-1.148.374-3.851 4.174-9.044 25.398-2.478 10.115-4.526 20.196-5.16 23.375l-.208 1.033-.931-.183s.068-.361.192-.973c.62-3.124 2.686-13.281 5.185-23.477 6.098-24.905 8.784-25.789 9.668-26.078a1.7 1.7 0 0 1 1.407.132c1.7.964 2.639 4.968 3.919 10.501 1.449 6.188 3.251 13.97 6.791 19.091"></path><path fill="#D84E5A" d="m334.825 263.667 9.185 1.674.178.034-.807 3.018-9.04-1.526z"></path><path fill="#3B73AB" d="m374.493 169.895 11.9 17.216s-5.278 9.954-10.455 10.995c0 0-5.384-9.409-6.018-14.212s2.716-13.587 4.573-13.999"></path><path fill="#855137" d="M340.401 143.257c0 6.681 4.114 11.283 10.795 11.283s11.348-4.951 11.348-11.611c0-6.659-3.957-11.742-10.625-11.742-8.028-.022-11.518 5.389-11.518 12.07"></path><path fill="#855137" d="M341.91 146.133s-1.857-2.477-3.234-.425.569 8.075 3.948 6.618z"></path><path fill="#440900" d="M341.889 150.451a.284.284 0 0 1-.277-.208c-.522-1.866-2.456-2.623-2.477-2.631a.286.286 0 0 1-.015-.529.29.29 0 0 1 .219-.007c.089.034 2.218.85 2.822 3.014a.288.288 0 0 1-.196.352z"></path><path fill="#440900" d="M339.933 149.511a.3.3 0 0 1-.153-.046.29.29 0 0 1-.085-.396 2.6 2.6 0 0 1 1.071-.85.287.287 0 0 1 .234.523c-.326.143-.61.367-.825.65a.29.29 0 0 1-.242.119"></path><path fill="#855137" d="M361.039 146.133s1.857-2.477 3.239-.425-.57 8.075-3.953 6.618z"></path><path fill="#440900" d="M361.064 150.451a.29.29 0 0 0 .277-.208c.522-1.866 2.456-2.623 2.477-2.631a.286.286 0 0 0 .016-.529.3.3 0 0 0-.22-.007c-.089.034-2.222.85-2.826 3.014a.29.29 0 0 0 .2.352z"></path><path fill="#440900" d="M363.015 149.511a.3.3 0 0 0 .157-.046.29.29 0 0 0 .085-.396 2.64 2.64 0 0 0-1.071-.85.3.3 0 0 0-.219-.006.29.29 0 0 0-.165.37.3.3 0 0 0 .06.094q.038.042.091.065c.326.143.61.367.824.65a.28.28 0 0 0 .238.119"></path><path fill="#855137" d="M356.045 157.445v6.01s-1.793 3.064-4.216 3.272c-2.422.209-4.577-2.635-4.577-2.635v-6.226z"></path><path fill="#6D280A" d="M356.045 157.445v2.669c-1.628 1.802-4.518 2.253-8.793 1.624v-3.872z"></path><path fill="#855137" d="M340.919 145.942q.133 1.992.484 3.957c.808 4.433 2.623 8.789 6.537 10.2 8.857 3.162 12.023-4.433 13.285-8.861.141-.493.268-1.042.379-1.624.199-1.054.357-2.235.476-3.421.144-1.437.242-2.89.301-4.169a6.252 6.252 0 0 0-4.003-6.142c-3.634-1.394-9.15-2.499-14.382.464a6.281 6.281 0 0 0-3.171 5.329c-.034 1.203 0 2.678.094 4.267"></path><path fill="#000" d="M340.919 145.941q.133 1.992.484 3.957c.808 4.433 2.623 8.789 6.537 10.2 8.857 3.162 12.023-4.433 13.285-8.861.141-.493.268-1.041.379-1.624.199-1.054.357-2.235.476-3.421h-1.275c-.268.85-1.7 5.852-2.181 6.566-1.007-2.414-6.12-.811-6.12-.811h-.025a3.1 3.1 0 0 1-1.93-.009s-5.049-1.674-6.098.629c-.464-.714-2.125-5.835-2.419-6.375zm10.578 7.085c5.784-.778 4.875 2.333 4.875 2.333a9.6 9.6 0 0 1-1.624 1.233 6.67 6.67 0 0 1-3.4.931c-.888-.043-1.13.144-3.374-1.071a5.7 5.7 0 0 1-1.19-.901c-.102-.612-1.08-3.519 4.713-2.525"></path><path fill="#440900" d="M351.574 151.427a3 3 0 0 0 1.033-.217.3.3 0 0 0 .101-.057.292.292 0 0 0 .075-.32.286.286 0 0 0-.388-.15c-.26.102-.88.268-1.148.107a.31.31 0 0 1-.14-.264 43 43 0 0 1 .174-4.373.28.28 0 0 0-.068-.209.28.28 0 0 0-.403-.033.3.3 0 0 0-.069.088.3.3 0 0 0-.029.107 42 42 0 0 0-.175 4.48.89.89 0 0 0 .425.697c.189.1.399.15.612.144"></path><path fill="#fff" d="M351.186 153.506c-2.125 0-2.265 3.213-.132 3.328h.485c2.125-.102 2.018-3.328-.124-3.328z"></path><path fill="#000" d="M421.092 246.124c-1.607 6.264-6.095 11.016-12.98 13.74a33 33 0 0 1-5.1 1.539c.056-.068.107-.141.158-.209a24.6 24.6 0 0 0 2.711-4.789c4.543-1.649 9.707-4.901 11.343-11.284 1.573-6.133-.964-15.3-6.464-23.375-4.356-6.375-14.25-17.425-31.552-19.571-15.104-1.87-24.918.425-33.575 2.452-7.361 1.7-14.31 3.345-22.814 1.857-6.247-1.096-11.05-2.682-15.27-4.08-7.782-2.575-12.92-4.275-21.084-.931-13.77 5.64-19.907 29.019-19.975 29.257l-3.868-.99c.268-1.041 6.694-25.559 22.325-31.964 9.529-3.906 15.849-1.815 23.851.85 4.102 1.36 8.747 2.894 14.705 3.94 7.701 1.347 13.966-.115 21.212-1.811 8.98-2.104 19.163-4.484 34.973-2.529a47.36 47.36 0 0 1 20.46 7.536 51 51 0 0 1 13.902 13.748c6.222 9.108 8.916 19.308 7.042 26.614"></path><path fill="#898888" d="m228.588 267.676 8.963-28.322a22.908 22.908 0 0 1 43.682 13.821l-8.964 28.305z"></path><path fill="#855137" d="M298.892 200.577a33 33 0 0 1 2.329-4.191c.786-1.22 2.613-1.819 2.817-.353.158 1.156-.671 2.028-.85 3.158 0 0 .404-.642 1.305-2.312.816-1.504 1.934-1.394 2.125-.251.157 1.076-.161 1.033-.425 1.849-.353 1.088-.85 2.44-.85 2.44.36-1.218.936-2.361 1.7-3.375.608-.824 1.216-1.738 2.125-.459.455.642-.144 2.389-.629 4.25 0 0 .973-2.503 2.227-3.145.99-.51 1.496-.064 1.109 1.318a30 30 0 0 1-1.185 3.323c-.374 1.054-1.756 2.55-2.848 2.21s-1.334-1.113-2.078-1.169c-.744-.055-1.942 0-2.452-.425s-1.033-.565-1.9-.595c-.867-.029-2.567-1.143-2.52-2.273M376.355 204.128a32.6 32.6 0 0 1 1.87-4.42c.659-1.275 2.202-2.167 2.55-.731.277 1.135-.242 2.18-.293 3.319 0 0 .336-.68 1.067-2.431.659-1.581 1.781-1.581 2.061-.463.281 1.118-.051 1.046-.234 1.883-.246 1.118-.607 2.516-.607 2.516.24-1.25.703-2.447 1.368-3.532.523-.88 1.033-1.853 2.061-.671.515.59.098 2.388-.195 4.296 0 0 .348-2.278 1.526-3.047.935-.603 1.853-.523 1.61.893a31 31 0 0 1-.85 3.4c-.267 1.088-1.487 2.728-2.613 2.49-1.127-.238-1.437-.973-2.185-.952s-1.929.213-2.482-.195c-.552-.408-1.088-.459-1.951-.4-.862.06-2.639-.841-2.703-1.955"></path><path fill="#E5E5E5" d="M224.155 295.045a2.814 2.814 0 0 1-2.818 2.818h-11.229v-5.635h11.229a2.815 2.815 0 0 1 2.818 2.817M224.155 315.091a2.814 2.814 0 0 1-2.818 2.818h-11.229v-5.636h11.229c.747 0 1.464.297 1.992.826.529.528.826 1.245.826 1.992"></path><path fill="#000" d="M215.23 292.228h-5.122v5.639h5.122zM215.23 312.273h-5.122v5.64h5.122zM165.539 301.767l-.157 4.463c-46.546-1.632-82.65-5.028-107.296-10.09-21.135-4.339-34.37-9.919-40.464-17.055-3.128-3.668-4.433-7.833-3.876-12.389.944-7.675 7.765-13.341 20.307-16.889.183 1.484.505 2.948.96 4.373-8.423 2.427-16.022 6.443-16.834 13.06-.425 3.307.523 6.235 2.839 8.925 5.346 6.26 18.122 11.505 37.97 15.581 24.399 5.032 60.252 8.398 106.551 10.021"></path><path fill="#898888" d="M210.109 327.973h-29.703a22.908 22.908 0 1 1 0-45.815h29.703z"></path><path fill="#A9CEEA" d="M145.241 81.105a22.6 22.6 0 0 0-1.25-7.931l5.801-5.143-3.799-6.124-7.149 2.899a22.6 22.6 0 0 0-6.574-4.722l.463-7.705-7.017-1.64-3.022 7.144a22.6 22.6 0 0 0-7.909 1.347l-5.159-5.852-6.125 3.803 2.975 7.327a22.6 22.6 0 0 0-4.517 6.418l-7.973-.48-1.67 7.033 7.445 3.15a22.7 22.7 0 0 0 1.275 7.569l-6.09 5.397 3.8 6.124 7.573-3.072a22.5 22.5 0 0 0 6.18 4.437l-.493 8.164 7.016 1.645 3.184-7.489a22.6 22.6 0 0 0 7.586-1.194l5.355 6.044 6.124-3.8-3-7.425a22.7 22.7 0 0 0 4.632-6.34l7.888.475 1.645-7.02zm-16.737 9.205a11.384 11.384 0 0 1-17.086-12.272 11.387 11.387 0 0 1 15.792-7.772 11.388 11.388 0 0 1 1.294 20.044"></path><path fill="#B8DAF7" d="M142.505 82.53a22.6 22.6 0 0 0-1.249-7.93l5.801-5.143-3.799-6.129-7.149 2.903a22.7 22.7 0 0 0-6.575-4.726l.464-7.701-7.017-1.645-3.022 7.144a22.5 22.5 0 0 0-7.905 1.348l-5.185-5.848-6.124 3.8 2.975 7.326a22.6 22.6 0 0 0-4.522 6.418l-7.973-.48-1.645 7.016 7.446 3.15a22.6 22.6 0 0 0 1.275 7.569l-6.09 5.397 3.816 6.129 7.574-3.073a22.7 22.7 0 0 0 6.179 4.437l-.493 8.16 7.021 1.645 3.167-7.493a22.5 22.5 0 0 0 7.577-1.194l5.355 6.043 6.12-3.799-2.975-7.4a22.5 22.5 0 0 0 4.633-6.34l7.888.475 1.628-7.033zm-16.728 9.2a11.39 11.39 0 0 1-12.649-.42 11.39 11.39 0 0 1-4.451-11.849 11.39 11.39 0 0 1 9.244-8.645 11.39 11.39 0 0 1 7.856 20.915"></path><path fill="#A9CEEA" d="m91.223 71.866 2.371.14.366-1.564zM122.98 52.158l2.737-1.42-.794 1.874zM106.867 54.8l2.737-1.423-2.58 1.602zM116.299 112.293l2.737-1.419-1.942-.455zM148.055 92.587l2.737-1.42-2.372-.145zM132.408 109.652l2.737-1.42-.157-.178zM341.706 33.98a25 25 0 0 0-1.373-8.713l6.375-5.648-4.182-6.74-7.849 3.183a24.9 24.9 0 0 0-7.225-5.19l.51-8.461-7.71-1.807-3.319 7.85c-2.96-.03-5.9.471-8.683 1.48l-5.674-6.406-6.727 4.178 3.263 8.045a25 25 0 0 0-4.963 7.051l-8.76-.527-1.806 7.71 8.177 3.46a24.9 24.9 0 0 0 1.415 8.316l-6.689 5.93 4.177 6.727 8.318-3.374a24.9 24.9 0 0 0 6.8 4.874l-.54 8.968 7.709 1.806 3.481-8.232c2.833.043 5.652-.4 8.335-1.313l5.86 6.634 6.728-4.178-3.328-8.126a24.8 24.8 0 0 0 5.1-6.966l8.666.523 1.806-7.71zm-18.385 10.11a12.52 12.52 0 0 1-13.896-.465 12.511 12.511 0 1 1 17.929-16.76 12.51 12.51 0 0 1 1.553 9.449 12.514 12.514 0 0 1-5.586 7.777"></path><path fill="#B8DAF7" d="M338.701 35.538a24.9 24.9 0 0 0-1.373-8.712l6.375-5.649-4.173-6.727-7.85 3.183a24.9 24.9 0 0 0-7.225-5.185l.506-8.466-7.706-1.806-3.319 7.85a24.9 24.9 0 0 0-8.687 1.479l-5.691-6.422-6.727 4.173 3.264 8.05a24.8 24.8 0 0 0-4.973 7.046l-8.759-.531-1.806 7.714 8.177 3.46a24.8 24.8 0 0 0 1.415 8.312l-6.698 5.933 4.173 6.732 8.322-3.379c1.972 2.001 4.272 3.65 6.8 4.875l-.544 8.96 7.709 1.806L313.388 60a24.8 24.8 0 0 0 8.334-1.309l5.886 6.639 6.728-4.174-3.285-8.121a24.8 24.8 0 0 0 5.1-6.966l8.666.523 1.806-7.71zM320.315 45.65a12.51 12.51 0 0 1-18.313-6.233 12.511 12.511 0 1 1 18.309 6.233z"></path><path fill="#A9CEEA" d="m282.358 23.825 2.606.158.403-1.717zM317.248 2.176l3.005-1.56-.871 2.061zM299.549 5.082l3.005-1.564-2.831 1.76zM309.912 68.243l3.005-1.56-2.134-.501zM344.794 46.594l3.005-1.56-2.606-.157zM327.608 65.34l3.005-1.56-.174-.195z"></path><path fill="#D84E5A" d="m318.364 264.878-.51 3.081-1.564-.11-6.519-.455-1.063-.077.17-3.234 1.437.119 6.579.548 1.292.111z"></path><path fill="#898888" d="M179.067 192.009h-11.459v6.065h13.059v4.241h-17.876v-23.589h17.3v4.177h-12.483v5.009h11.459zm15.46 1.056h-5.089v9.25h-4.818v-23.589h11.571q2.481.048 3.809.608a5.95 5.95 0 0 1 2.273 1.648 7.3 7.3 0 0 1 1.216 1.985q.448 1.088.448 2.48 0 1.681-.848 3.313-.849 1.617-2.801 2.289 1.632.656 2.305 1.872.688 1.2.688 3.681v1.584q0 1.617.128 2.193.192.912.896 1.344v.592h-5.425q-.225-.783-.32-1.264a11.6 11.6 0 0 1-.208-2.032l-.032-2.193q-.033-2.256-.832-3.009-.785-.752-2.961-.752m2.993-4.289q1.472-.672 1.472-2.657 0-2.144-1.424-2.88-.8-.416-2.401-.416h-5.729v6.337h5.585q1.665 0 2.497-.384m20.693 4.289h-5.09v9.25h-4.817v-23.589h11.571q2.48.048 3.809.608a5.94 5.94 0 0 1 2.272 1.648 7.3 7.3 0 0 1 1.217 1.985q.447 1.088.448 2.48 0 1.681-.848 3.313-.849 1.617-2.801 2.289 1.632.656 2.305 1.872.688 1.2.688 3.681v1.584q0 1.617.128 2.193.192.912.896 1.344v.592h-5.425q-.224-.783-.32-1.264a11.7 11.7 0 0 1-.209-2.032l-.032-2.193q-.031-2.256-.832-3.009-.784-.752-2.96-.752m2.992-4.289q1.473-.672 1.473-2.657 0-2.144-1.425-2.88-.8-.416-2.4-.416h-5.73v6.337h5.586q1.663 0 2.496-.384m21.109 14.196q-5.057 0-7.729-2.753-3.585-3.377-3.585-9.73 0-6.483 3.585-9.731 2.672-2.753 7.729-2.753t7.73 2.753q3.57 3.248 3.569 9.731 0 6.353-3.569 9.73-2.672 2.753-7.73 2.753m4.658-6.338q1.712-2.16 1.712-6.145 0-3.97-1.728-6.13-1.713-2.176-4.642-2.176-2.928 0-4.673 2.16-1.744 2.16-1.744 6.146t1.744 6.145q1.745 2.16 4.673 2.161t4.658-2.161m20.437-3.569h-5.09v9.25h-4.817v-23.589h11.571q2.48.048 3.809.608a5.94 5.94 0 0 1 2.272 1.648 7.3 7.3 0 0 1 1.217 1.985q.447 1.088.448 2.48 0 1.681-.848 3.313-.849 1.617-2.801 2.289 1.632.656 2.305 1.872.688 1.2.688 3.681v1.584q0 1.617.128 2.193.192.912.896 1.344v.592h-5.425q-.224-.783-.32-1.264a11.6 11.6 0 0 1-.208-2.032l-.033-2.193q-.031-2.256-.832-3.009-.783-.752-2.96-.752m2.992-4.289q1.473-.672 1.473-2.657 0-2.144-1.425-2.88-.8-.416-2.4-.416h-5.73v6.337h5.586q1.664 0 2.496-.384"></path></svg>