<svg width="200" height="57" viewBox="0 0 200 57" fill="none" xmlns="http://www.w3.org/2000/svg">
<path d="M79.615 37.5006H83.7736V30.3715H85.5817L89.9986 37.5006H94.4413L89.5595 29.6483C91.7293 29.0026 93.3565 27.5302 93.3565 24.7406V24.6373C93.3565 20.8145 90.5927 19.0322 86.2275 19.0322H79.615V37.5006ZM83.7736 27.5302V22.2352H86.1241C88.1389 22.2352 89.2754 22.8809 89.2754 24.7665V24.8698C89.2754 26.6521 88.2164 27.5302 86.1241 27.5302H83.7736Z" fill="#828282"/>
<path d="M101.579 37.7847C105.273 37.7847 107.598 36.1575 108.037 33.2387H104.498C104.265 34.3752 103.413 35.1243 101.683 35.1243C99.642 35.1243 98.428 33.8328 98.3247 31.5856H108.063V30.5524C108.063 25.7221 104.963 23.6816 101.476 23.6816C97.5497 23.6816 94.5276 26.4454 94.5276 30.7074V30.914C94.5276 35.2276 97.498 37.7847 101.579 37.7847ZM98.3763 29.2867C98.6604 27.3753 99.7969 26.2646 101.476 26.2646C103.258 26.2646 104.291 27.2461 104.421 29.2867H98.3763Z" fill="#828282"/>
<path d="M109.843 37.5006H113.562V17.8699H109.843V37.5006Z" fill="#828282"/>
<path d="M120.698 37.7847C122.92 37.7847 124.288 36.7515 124.986 35.3826V37.5006H128.705V23.9916H124.986V31.9214C124.986 33.9103 123.746 34.8918 122.171 34.8918C120.57 34.8918 119.82 34.0136 119.82 32.1797V23.9916H116.101V32.6963C116.101 36.2349 118.064 37.7847 120.698 37.7847Z" fill="#828282"/>
<path d="M131.245 37.5006H134.991V29.5192C134.991 27.6853 136.153 26.7553 137.599 26.7553C138.917 26.7553 139.717 27.5302 139.717 29.2609V37.5006H143.437V29.5192C143.437 27.6853 144.599 26.7553 146.045 26.7553C147.388 26.7553 148.164 27.5302 148.164 29.2609V37.5006H151.883V28.8476C151.883 25.2573 149.946 23.6816 147.44 23.6816C145.736 23.6816 143.979 24.4048 142.894 26.0322C142.249 24.4307 140.906 23.6816 139.123 23.6816C137.108 23.6816 135.662 24.7923 134.991 26.058V23.9916H131.245V37.5006Z" fill="#828282"/>
<path d="M160.532 37.7847C164.226 37.7847 166.551 36.1575 166.989 33.2387H163.451C163.218 34.3752 162.366 35.1243 160.635 35.1243C158.594 35.1243 157.381 33.8328 157.277 31.5856H167.015V30.5524C167.015 25.7221 163.915 23.6816 160.428 23.6816C156.502 23.6816 153.48 26.4454 153.48 30.7074V30.914C153.48 35.2276 156.451 37.7847 160.532 37.7847ZM157.329 29.2867C157.613 27.3753 158.75 26.2646 160.428 26.2646C162.211 26.2646 163.244 27.2461 163.374 29.2867H157.329Z" fill="#828282"/>
<path fill-rule="evenodd" clip-rule="evenodd" d="M65.303 20.1371L65.0519 19.6887C64.728 19.1464 64.2712 18.6956 63.7246 18.3792L51.6885 11.4374C51.1435 11.1213 50.5249 10.9543 49.8948 10.9531H49.3746C48.7445 10.9543 48.1259 11.1213 47.5808 11.4374L35.5449 18.3972C35.0013 18.7115 34.5498 19.1631 34.2354 19.7066L33.9843 20.1551C33.6682 20.7 33.5011 21.3187 33.5 21.9487V35.8503C33.5011 36.4804 33.6682 37.099 33.9843 37.644L34.2354 38.0925C34.5579 38.6297 35.0076 39.0794 35.5449 39.4019L47.5988 46.3436C48.1411 46.6663 48.7616 46.8339 49.3925 46.8279H49.8948C50.5249 46.8268 51.1435 46.6598 51.6885 46.3436L63.7246 39.384C64.2735 39.0767 64.7267 38.6235 65.0339 38.0745L65.303 37.6261C65.6154 37.0795 65.7822 36.4618 65.7873 35.8323V21.9308C65.7863 21.3008 65.6192 20.6821 65.303 20.1371ZM49.3746 14.5405H49.8948L60.4062 20.6034L49.6437 26.8097L38.8812 20.6034L49.3746 14.5405ZM51.4374 42.3438L61.9308 36.2809L62.1998 35.8324V23.7068L51.4374 29.931V42.3438Z" fill="#828282"/>
</svg>
