<svg width="200" height="57" viewBox="0 0 200 57" fill="none" xmlns="http://www.w3.org/2000/svg">
<path fill-rule="evenodd" clip-rule="evenodd" d="M68.5702 17.2031L57.0607 39.7031H46.25L51.0667 30.3781H50.8506C46.8769 35.5366 40.9479 38.9325 32.5 39.7031V30.5072C32.5 30.5072 37.9043 30.188 41.0814 26.8478H32.5V17.2033H42.1445V25.1358L42.361 25.1349L46.3021 17.2033H53.596V25.0855L53.8124 25.0851L57.9014 17.2031H68.5702Z" fill="#828282"/>
<path d="M131.333 37.2196H134.439V19.3906H131.333V37.2196Z" fill="#828282"/>
<path fill-rule="evenodd" clip-rule="evenodd" d="M114.209 37.0376C114.884 37.3182 115.571 37.4586 116.268 37.4586C117.421 37.4586 118.453 37.178 119.363 36.6166C120.273 36.0554 120.979 35.2817 121.479 34.2956C121.98 33.302 122.23 32.1755 122.23 30.9163C122.23 29.6572 121.972 28.5309 121.457 27.5372C120.941 26.5436 120.224 25.7736 119.306 25.2275C118.388 24.6738 117.345 24.4007 116.177 24.4083C115.434 24.4083 114.721 24.5524 114.038 24.8407C113.356 25.1289 112.787 25.5385 112.332 26.0695C112.297 26.1099 112.262 26.1507 112.229 26.192V19.4021H109.112V37.2197H112.207L112.2 35.5552C112.28 35.6533 112.366 35.7492 112.457 35.843C112.95 36.3512 113.534 36.7493 114.209 37.0376ZM117.395 34.1591C116.887 34.4701 116.306 34.6256 115.654 34.6256C115.009 34.6256 114.418 34.4662 113.879 34.1477C113.34 33.8215 112.912 33.3778 112.593 32.8165C112.282 32.2552 112.127 31.618 112.127 30.905C112.119 30.192 112.271 29.5548 112.582 28.9936C112.901 28.4247 113.329 27.9847 113.868 27.6737C114.406 27.3552 115.002 27.1997 115.654 27.2072C116.306 27.1997 116.887 27.3514 117.395 27.6624C117.911 27.9658 118.305 28.4019 118.578 28.9708C118.859 29.5321 118.999 30.1768 118.999 30.905C118.999 31.6332 118.859 32.278 118.578 32.8392C118.305 33.4006 117.911 33.8405 117.395 34.1591Z" fill="#828282"/>
<path d="M73.0701 20.4716H76.6199L79.7954 32.0685L83.1736 20.4716H86.1318L89.7954 31.8358L92.8447 20.4716H96.0987L91.2973 37.2197H88.2367L84.5112 26.1177L81.0914 37.2197H77.9967L73.0701 20.4716Z" fill="#828282"/>
<path fill-rule="evenodd" clip-rule="evenodd" d="M101.341 37.5155C100.105 37.5231 98.9898 37.25 97.9962 36.6963C97.01 36.135 96.2327 35.3575 95.6637 34.3638C95.1024 33.3702 94.8218 32.2362 94.8218 30.9618C94.8218 29.7255 95.11 28.6067 95.6865 27.6055C96.2629 26.6042 97.0442 25.8229 98.0303 25.2616C99.0164 24.7003 100.116 24.4197 101.33 24.4197C102.695 24.4197 103.89 24.7231 104.914 25.3299C105.945 25.9367 106.715 26.7976 107.224 27.9126C107.739 29.0201 107.925 30.2906 107.781 31.7242H98.0352C98.0624 32.2953 98.2049 32.815 98.4627 33.283C98.7509 33.7987 99.1529 34.2007 99.6687 34.489C100.185 34.7772 100.761 34.9213 101.398 34.9213C101.884 34.9137 102.335 34.8303 102.752 34.6711C103.169 34.5042 103.522 34.2805 103.81 33.9997C104.106 33.7191 104.315 33.4006 104.436 33.0441H107.69C107.493 33.9163 107.098 34.6938 106.507 35.3765C105.915 36.0516 105.172 36.5787 104.277 36.958C103.382 37.3372 102.403 37.5231 101.341 37.5155ZM98.474 28.5953C98.2923 28.9123 98.1663 29.2536 98.0962 29.6193H104.557C104.51 29.1573 104.367 28.7364 104.129 28.3564C103.856 27.9089 103.484 27.5637 103.014 27.321C102.544 27.0707 102.013 26.9455 101.421 26.9455C100.791 26.9455 100.219 27.0897 99.7028 27.3779C99.187 27.6661 98.7774 28.0719 98.474 28.5953Z" fill="#828282"/>
<path d="M124.518 24.6813C124.518 23.6649 124.749 22.7623 125.212 21.9734C125.674 21.177 126.323 20.5588 127.157 20.1188C127.999 19.6713 128.982 19.44 130.104 19.4248V22.1896C129.581 22.1972 129.133 22.3072 128.762 22.5196C128.397 22.7244 128.117 23.024 127.92 23.4184C127.738 23.7815 127.64 24.2025 127.626 24.6813H130.036V27.3096H127.624V37.2197H124.518V27.3096H122.515V24.6813H124.518Z" fill="#828282"/>
<path fill-rule="evenodd" clip-rule="evenodd" d="M142.335 37.4926C141.068 37.4926 139.934 37.2157 138.933 36.6621C137.939 36.1007 137.158 35.3271 136.589 34.341C136.028 33.3474 135.747 32.221 135.747 30.9617C135.747 29.6951 136.028 28.5649 136.589 27.5712C137.158 26.57 137.939 25.7925 138.933 25.2388C139.934 24.6851 141.068 24.4082 142.335 24.4082C143.609 24.4082 144.747 24.6851 145.748 25.2388C146.757 25.7925 147.542 26.5662 148.103 27.5599C148.665 28.5535 148.949 29.6875 148.957 30.9617C148.949 32.221 148.665 33.3474 148.103 34.341C147.55 35.3271 146.768 36.1007 145.759 36.6621C144.751 37.2157 143.609 37.4926 142.335 37.4926ZM142.335 34.6369C143.002 34.6369 143.594 34.4851 144.11 34.1817C144.626 33.8707 145.024 33.4384 145.304 32.8846C145.585 32.3234 145.725 31.6824 145.725 30.9617C145.725 30.2336 145.585 29.5889 145.304 29.0276C145.024 28.4663 144.626 28.0339 144.11 27.7305C143.594 27.4195 143.002 27.264 142.335 27.264C141.675 27.264 141.087 27.4195 140.571 27.7305C140.063 28.0339 139.669 28.4663 139.388 29.0276C139.107 29.5889 138.971 30.2336 138.978 30.9617C138.978 31.6824 139.119 32.3234 139.399 32.8846C139.688 33.4384 140.082 33.8707 140.583 34.1817C141.091 34.4851 141.675 34.6369 142.335 34.6369Z" fill="#828282"/>
<path d="M152.313 24.6813H148.854L152.598 37.2196H155.624L158.086 29.2114L160.744 37.2196H163.725L167.48 24.6813H164.351L162.221 32.4856L159.867 24.6813H156.842L154.499 32.6575L152.313 24.6813Z" fill="#828282"/>
</svg>
