<?xml version="1.0" encoding="UTF-8"?>
<svg version="1.1" xmlns="http://www.w3.org/2000/svg" width="465" height="245">
<path d="M0 0 C1.05356689 0.00081573 1.05356689 0.00081573 2.12841797 0.00164795 C13.61062769 0.04241358 24.43397189 0.91599619 35.4375 4.375 C36.12650391 4.58930664 36.81550781 4.80361328 37.52539062 5.02441406 C53.15842014 10.05716536 66.91312263 17.80226925 79.4375 28.375 C79.94909668 28.80151855 80.46069336 29.22803711 80.98779297 29.66748047 C89.92455746 37.19839809 105.22980895 50.5761081 106.875 62.5625 C106.4375 65.375 106.4375 65.375 105.125 67.1875 C101.26801041 69.90167786 97.13692503 69.536167 92.62890625 69.54296875 C91.86577621 69.54629715 91.10264618 69.54962555 90.31639099 69.55305481 C88.70336509 69.55811409 87.09032875 69.56046344 85.47729492 69.56030273 C83.01268232 69.56248875 80.54851777 69.58065332 78.08398438 69.59960938 C76.51562653 69.60254362 74.94726656 69.60452821 73.37890625 69.60546875 C72.64338028 69.61265427 71.90785431 69.61983978 71.15003967 69.62724304 C65.74893458 69.60318598 63.03127267 68.9245012 59.1875 65.1875 C57.82625 63.7953125 57.82625 63.7953125 56.4375 62.375 C41.34966727 47.32387733 20.85612794 40.78429607 -0.125 40.125 C-25.84400604 40.89850394 -45.26854587 52.55940887 -62.90234375 70.515625 C-66.24636224 74.1100766 -69.33274422 77.8645087 -72.390625 81.703125 C-74.49122901 84.28732129 -76.68108921 86.73905424 -78.9375 89.1875 C-82.97667575 93.61937339 -86.66563508 98.25581821 -90.33544922 102.99145508 C-93.48266335 107.0393558 -96.72591745 110.98212225 -100.0625 114.875 C-105.77081758 121.54856063 -111.17681815 128.44016961 -116.5625 135.375 C-142.1506035 168.32331793 -142.1506035 168.32331793 -150.5625 170.375 C-157.60087117 171.21006099 -162.72843977 169.39468755 -168.5625 165.375 C-173.56706499 160.153342 -174.95030209 155.02364534 -174.828125 147.98828125 C-174.05439938 140.37618659 -169.13450565 135.56930784 -164.10546875 130.1875 C-161.35409726 127.14450849 -158.82367632 123.99090048 -156.3125 120.75 C-152.2932677 115.57054031 -148.21081392 110.45175774 -144.0625 105.375 C-139.96324689 100.35561722 -135.91869803 95.30097192 -131.9375 90.1875 C-127.49100427 84.48473627 -122.87108865 78.95178652 -118.17578125 73.453125 C-115.78367731 70.6479268 -113.44794149 67.80036843 -111.125 64.9375 C-109.6061433 63.08171381 -108.08520769 61.22762769 -106.5625 59.375 C-106.14484375 58.86420898 -105.7271875 58.35341797 -105.296875 57.82714844 C-77.49814046 23.99854133 -45.40973973 -0.13278486 0 0 Z " fill="#009EE2" transform="translate(327.5625,-0.375)"/>
<path d="M0 0 C3.94162599 2.92176472 6.85697711 5.55850714 8.1875 10.375 C9.05713526 17.88824412 8.73371445 23.74366859 3.99389648 29.93383789 C2.58956608 31.61088367 1.14692118 33.24570527 -0.3125 34.875 C-4.46424794 39.61335993 -8.50281293 44.40507485 -12.375 49.375 C-13.05212036 50.24354614 -13.05212036 50.24354614 -13.74291992 51.12963867 C-15.10145926 52.87654015 -16.45709696 54.62566451 -17.8125 56.375 C-25.45646065 66.2122241 -33.29304041 75.87241585 -41.23779297 85.46826172 C-43.33741169 88.01059075 -45.41896512 90.56744908 -47.5 93.125 C-54.72536607 101.95898189 -62.08202877 110.66190197 -69.76171875 119.10546875 C-71.66478088 121.21152418 -73.52403821 123.34820469 -75.375 125.5 C-76.51602545 126.79591579 -77.66178994 128.08767596 -78.8125 129.375 C-79.35648438 129.98601562 -79.90046875 130.59703125 -80.4609375 131.2265625 C-95.89453062 147.60369406 -116.22782789 158.59057036 -137.8125 164.375 C-138.51318604 164.56932617 -139.21387207 164.76365234 -139.93579102 164.96386719 C-147.67245514 166.82046801 -155.53187956 166.74719639 -163.44116211 166.74560547 C-165.84627813 166.74994814 -168.2495075 166.78627821 -170.65429688 166.82421875 C-198.47173902 167.02669853 -224.63648653 156.08486293 -245.8125 138.375 C-246.75867188 137.59382812 -247.70484375 136.81265625 -248.6796875 136.0078125 C-256.12437156 129.57543675 -262.03553848 122.28317192 -267.8125 114.375 C-268.41835938 113.56289062 -269.02421875 112.75078125 -269.6484375 111.9140625 C-271.80865599 108.79905131 -272.8125 106.83127803 -272.8125 103 C-271.8125 100.375 -271.8125 100.375 -268.8125 98.375 C-265.93315714 98.11836252 -263.15314871 97.97489372 -260.26953125 97.93359375 C-259.00588997 97.91293602 -259.00588997 97.91293602 -257.71672058 97.89186096 C-255.93222617 97.86858688 -254.14764479 97.85132249 -252.36303711 97.83959961 C-249.65118401 97.81275916 -246.94328648 97.73788425 -244.23242188 97.66210938 C-229.68674924 97.44190426 -229.68674924 97.44190426 -224.85546875 101.6640625 C-223.80377257 102.869427 -222.78310034 104.10342483 -221.8125 105.375 C-208.86900019 116.95270843 -191.42948812 125.63192844 -173.8125 126.375 C-172.73871094 126.4265625 -171.66492188 126.478125 -170.55859375 126.53125 C-146.46697417 127.13416853 -126.5964982 118.64495511 -108.8125 102.375 C-101.78421221 95.3959359 -95.30211459 87.93458732 -89.11328125 80.20703125 C-86.45340874 76.93299463 -83.70011274 73.74972518 -80.9375 70.5625 C-76.48503173 65.40664022 -72.20745013 60.14502145 -68.02783203 54.76635742 C-64.51675009 50.2518406 -60.93031605 45.80433851 -57.3125 41.375 C-53.17793287 36.30971309 -49.08885772 31.21424604 -45.0625 26.0625 C-41.05546872 20.93920371 -37.01618525 15.84788015 -32.85546875 10.84765625 C-31.55685928 9.27591668 -30.28498692 7.68139633 -29.05078125 6.05859375 C-21.42594938 -3.59241721 -10.7026637 -6.50554068 0 0 Z " fill="#009EE2" transform="translate(302.8125,78.625)"/>
<path d="M0 0 C8.12633294 6.72381862 13.46017569 15.2755824 16.62109375 25.28515625 C16.89566406 26.13400391 16.89566406 26.13400391 17.17578125 27 C19.87155468 40.83357419 16.96106636 53.54320822 9.69140625 65.390625 C2.74004254 75.10941841 -8.29290112 82.68032914 -20.140625 85.03515625 C-34.5831618 86.64828427 -47.58767928 84.02239476 -59.37890625 75.28515625 C-69.92169435 66.53407633 -75.7567198 55.22464779 -77.31640625 41.72265625 C-78.02609192 27.74033851 -73.56155198 16.02630058 -64.72265625 5.26953125 C-47.70736987 -13.19044926 -19.89734513 -14.34307801 0 0 Z " fill="#009EE2" transform="translate(447.37890625,88.71484375)"/>
<path d="M0 0 C12.77487528 -0.60171514 24.3607659 4.12864688 34.16015625 12.09375 C44.32536985 21.62243219 49.60843244 33.90593505 50.15625 47.7109375 C49.94537584 61.92737022 44.32317472 73.64582379 34.45703125 83.625 C22.8689617 93.58962019 9.71321345 96.23139087 -5.15625 95.2109375 C-18.20585499 92.78242357 -29.48090444 86.12065357 -37.15625 75.2109375 C-44.53847941 62.26785842 -46.4754606 48.85575117 -43.7578125 34.03857422 C-42.74511432 30.44836443 -41.15101244 27.34481429 -39.15625 24.2109375 C-38.68703125 23.47230469 -38.2178125 22.73367187 -37.734375 21.97265625 C-36.30864007 19.93753462 -34.79061846 18.08111036 -33.15625 16.2109375 C-32.67929687 15.61796875 -32.20234375 15.025 -31.7109375 14.4140625 C-23.78252021 5.4099303 -11.6354872 1.13825418 0 0 Z " fill="#009EE2" transform="translate(44.15625,70.7890625)"/>
<path d="M0 0 C1.2271875 0.3403125 2.454375 0.680625 3.71875 1.03125 C19.70099117 5.9183816 40.02431257 14.32526105 49.2265625 28.94921875 C51.08676669 33.88157835 50.89833213 40.17229544 49.3125 45.1640625 C46.63497232 50.22905237 42.5995951 53.52455413 37.6875 56.3125 C29.16514368 58.49263766 23.41124986 56.37573021 16 52 C14.37338849 51.00262344 12.74839263 50.00260729 11.125 49 C-0.43624773 41.97292911 -13.47965481 37.79531442 -27 37 C-27.680625 36.95875 -28.36125 36.9175 -29.0625 36.875 C-45.36877638 36.39540364 -64.94636068 40.60716826 -77.70898438 51.26147461 C-86.65883486 58.67903435 -94.40085638 59.30049116 -105.79589844 58.95361328 C-108.5249168 58.87427562 -111.24653035 58.87158058 -113.9765625 58.87890625 C-115.72401557 58.85860796 -117.47142531 58.8340249 -119.21875 58.8046875 C-120.02711304 58.80226044 -120.83547607 58.79983337 -121.66833496 58.79733276 C-125.92726793 58.63634198 -127.57918035 58.33021787 -131.0480957 55.6081543 C-133 53 -133 53 -133.01171875 50.46484375 C-124.44393433 29.5912068 -97.81480165 13.43826137 -78 5 C-73.09181286 3.00522202 -68.10494818 1.4156579 -63 0 C-61.8759375 -0.3196875 -60.751875 -0.639375 -59.59375 -0.96875 C-41.21138066 -5.28461063 -18.16359102 -5.16579194 0 0 Z " fill="#009EE2" transform="translate(168,3)"/>
<path d="M0 0 C2.2453648 1.4386967 4.4701669 2.89466532 6.6875 4.375 C24.47715414 16.1438324 45.82326417 19.56120767 66.6875 15.8125 C77.84343156 13.30212213 90.88277446 9.23082277 99.66220093 1.54481506 C105.06667494 -3.07918051 109.0870926 -3.87135116 116.08203125 -3.7265625 C117.01802658 -3.72755951 117.95402191 -3.72855652 118.91838074 -3.72958374 C120.88244184 -3.72492959 122.84651794 -3.70563408 124.81030273 -3.67236328 C127.82187608 -3.62485208 130.82993991 -3.63129663 133.84179688 -3.64453125 C135.75522948 -3.63338634 137.66864722 -3.61917201 139.58203125 -3.6015625 C140.48202347 -3.60338531 141.38201569 -3.60520813 142.3092804 -3.60708618 C148.47631539 -3.46625929 148.47631539 -3.46625929 151.08837891 -1.140625 C152.44306201 2.04037701 152.04701318 3.71637112 151 7 C149.37398628 9.3032813 147.80951482 11.29864116 145.9375 13.375 C145.18388184 14.23134033 145.18388184 14.23134033 144.41503906 15.10498047 C142.9566798 16.74924559 141.48071788 18.37588517 140 20 C139.34644531 20.73734375 138.69289063 21.4746875 138.01953125 22.234375 C123.76371355 37.46575639 103.11622953 48.90691397 83 54 C82.02981934 54.25676514 81.05963867 54.51353027 80.06005859 54.77807617 C70.3808606 57.12246328 61.16616985 57.51808346 51.25 57.4375 C50.45630005 57.43445862 49.6626001 57.43141724 48.84484863 57.42828369 C37.11592193 57.36177977 26.1997166 56.75272341 15 53 C14.33774414 52.79101074 13.67548828 52.58202148 12.99316406 52.36669922 C-1.32356351 47.80951483 -21.7695839 39.64173322 -29.625 26.125 C-31.82124011 20.79127401 -32.01398626 15.26412432 -30.3046875 9.76171875 C-27.66862604 3.88042196 -23.99184781 0.33678306 -18.0625 -2.3125 C-11.43517899 -3.80026594 -6.0151695 -3.10491759 0 0 Z " fill="#009EE2" transform="translate(277,188)"/>
</svg>
