<svg xmlns="http://www.w3.org/2000/svg" width="48" height="48" viewBox="0 0 465 245" preserveAspectRatio="xMidYMid meet">
  <path fill="#009EE2" d="m327.563-.375 2.128.002C341.173-.333 351.996.54 363 4l2.088.65C380.72 9.681 394.476 17.426 407 28l1.55 1.292c8.937 7.531 24.242 20.91 25.887 32.896C434 65 434 65 432.688 66.812c-3.856 2.715-7.988 2.35-12.496 2.356l-2.312.01q-2.42.007-4.84.007c-2.464.002-4.928.02-7.393.04q-2.352.005-4.705.005l-2.228.022c-5.402-.024-8.12-.702-11.963-4.44L384 62c-15.088-15.051-35.581-21.59-56.562-22.25-25.72.774-45.144 12.434-62.778 30.39-3.344 3.595-6.43 7.35-9.488 11.188-2.1 2.584-4.29 5.036-6.547 7.484-4.04 4.432-7.728 9.069-11.398 13.804A321 321 0 0 1 227.5 114.5c-5.708 6.674-11.114 13.565-16.5 20.5-25.588 32.948-25.588 32.948-34 35-7.038.835-12.166-.98-18-5-5.005-5.222-6.388-10.351-6.266-17.387.774-7.612 5.694-12.419 10.723-17.8 2.751-3.043 5.282-6.197 7.793-9.438A781 781 0 0 1 183.5 105c4.1-5.02 8.144-10.074 12.125-15.187 4.446-5.703 9.066-11.236 13.762-16.735a453 453 0 0 0 7.05-8.516Q218.718 61.78 221 59l1.266-1.548C250.064 23.624 282.153-.508 327.563-.375"></path><path fill="#009EE2" d="M302.813 78.625c3.941 2.922 6.856 5.559 8.187 10.375.87 7.513.546 13.369-4.194 19.559a196 196 0 0 1-4.306 4.941c-4.152 4.738-8.19 9.53-12.062 14.5l-1.368 1.755A3701 3701 0 0 0 285 135c-7.644 9.837-15.48 19.497-23.425 29.093-2.1 2.543-4.181 5.1-6.262 7.657-7.226 8.834-14.583 17.537-22.262 25.98a348 348 0 0 0-5.613 6.395A691 691 0 0 1 224 208l-1.648 1.852C206.918 226.229 186.585 237.216 165 243l-2.123.589c-7.737 1.856-15.596 1.783-23.506 1.782-2.405.004-4.808.04-7.213.078C104.341 245.652 78.176 234.71 57 217l-2.867-2.367C46.688 208.2 40.777 200.908 35 193l-1.836-2.46c-2.16-3.116-3.164-5.084-3.164-8.915C31 179 31 179 34 177c2.88-.257 5.66-.4 8.543-.441l2.553-.042q2.676-.034 5.353-.052c2.712-.027 5.42-.102 8.131-.178 14.546-.22 14.546-.22 19.377 4.002A73 73 0 0 1 81 184c12.943 11.578 30.383 20.257 48 21l3.254.156c24.092.603 43.962-7.886 61.746-24.156 7.028-6.98 13.51-14.44 19.7-22.168 2.66-3.274 5.412-6.457 8.175-9.644a394 394 0 0 0 12.91-15.797c3.51-4.514 7.097-8.962 10.715-13.391a926 926 0 0 0 12.25-15.312c4.007-5.124 8.046-10.215 12.207-15.215a152 152 0 0 0 3.805-4.79c7.625-9.65 18.348-12.564 29.05-6.058M447.379 88.715C455.505 95.439 460.839 103.99 464 114l.555 1.715c2.695 13.833-.215 26.543-7.485 38.39-6.951 9.72-17.984 17.29-29.832 19.645-14.442 1.613-27.447-1.013-39.238-9.75-10.543-8.751-16.378-20.06-17.937-33.562-.71-13.983 3.754-25.697 12.593-36.454 17.016-18.46 44.826-19.612 64.723-5.27M44.156 70.79c12.775-.603 24.361 4.128 34.16 12.093 10.166 9.528 15.449 21.812 15.996 35.617-.21 14.216-5.833 25.935-15.699 35.914C67.025 164.38 53.87 167.02 39 166c-13.05-2.429-24.325-9.09-32-20-7.382-12.943-9.32-26.355-6.602-41.172C1.411 101.238 3.005 98.134 5 95l1.422-2.238C7.848 90.727 9.366 88.87 11 87l1.445-1.797C20.374 76.2 32.521 71.927 44.156 70.79M168 3l3.719 1.031c15.982 4.887 36.305 13.294 45.508 27.918 1.86 4.933 1.671 11.223.085 16.215-2.677 5.065-6.712 8.36-11.625 11.148-8.522 2.18-14.276.064-21.687-4.312q-2.44-1.495-4.875-3C167.564 44.973 154.52 40.795 141 40l-2.062-.125c-16.307-.48-35.884 3.732-48.647 14.386-8.95 7.418-16.692 8.04-28.087 7.693-2.729-.08-5.45-.082-8.18-.075q-2.621-.03-5.243-.074l-2.45-.008c-4.258-.16-5.91-.467-9.38-3.189C35 56 35 56 34.989 53.465 43.556 32.59 70.185 16.438 90 8c4.908-1.995 9.895-3.584 15-5l3.406-.969C126.79-2.285 149.836-2.166 168 3M277 188a424 424 0 0 1 6.688 4.375c17.79 11.769 39.135 15.186 60 11.438 11.155-2.51 24.195-6.582 32.974-14.268 5.405-4.624 9.425-5.416 16.42-5.272l2.836-.003q2.947.007 5.892.058c3.012.047 6.02.04 9.032.027q2.87.018 5.74.043l2.727-.005c6.167.14 6.167.14 8.78 2.466 1.354 3.181.958 4.857-.089 8.141-1.626 2.303-3.19 4.299-5.062 6.375l-1.523 1.73A481 481 0 0 1 417 208l-1.98 2.234C400.764 225.466 380.116 236.907 360 242l-2.94.778c-9.68 2.344-18.894 2.74-28.81 2.66l-2.405-.10c-11.73-.066-22.645-.675-33.845-4.428l-2.007-.633c-14.317-4.557-34.763-12.725-42.618-26.242-2.196-5.334-2.389-10.86-.68-16.363 2.636-5.882 6.313-9.425 12.243-12.074 6.627-1.488 12.047-.793 18.062 2.312"></path>
</svg>