<svg width="48" height="49" viewBox="0 0 48 49" fill="none" xmlns="http://www.w3.org/2000/svg">
<rect y="0.453125" width="48" height="48" rx="12" fill="#E4F6FF" fill-opacity="0.7"/>
<path d="M28 21.4531C28 25.3191 24.866 28.4531 21 28.4531C17.134 28.4531 14 25.3191 14 21.4531C14 17.5871 17.134 14.4531 21 14.4531C24.866 14.4531 28 17.5871 28 21.4531Z" stroke="#009EE2" stroke-width="1.5"/>
<path d="M20.0259 28.0598C20.0088 27.8598 20 27.6575 20 27.4531C20 23.5871 23.134 20.4531 27 20.4531C27.2867 20.4531 27.5693 20.4704 27.8469 20.5038M30.9969 21.7056C32.8121 22.9703 34 25.073 34 27.4531C34 31.3191 30.866 34.4531 27 34.4531C24.6199 34.4531 22.5172 33.2652 21.2525 31.45" stroke="#009EE2" stroke-width="1.5" stroke-linecap="round" stroke-linejoin="round"/>
<path d="M18.5 14.9531L27.5 23.9531M14.5 18.9531L23.5 27.9531" stroke="#009EE2" stroke-width="1.5"/>
</svg>
